<?xml version="1.0" encoding="utf-8"?>
<!-- Generator: Adobe Illustrator 19.0.1, SVG Export Plug-In . SVG Version: 6.00 Build 0)  -->
<svg version="1.1" id="Слой_1" xmlns="http://www.w3.org/2000/svg" xmlns:xlink="http://www.w3.org/1999/xlink" x="0px" y="0px"
	 viewBox="0 0 399.9 124.7" style="enable-background:new 0 0 399.9 124.7;" xml:space="preserve">
<style type="text/css">
	.st0{font-family:'Tahoma-Bold';}
	.st1{font-size:24px;}
	.st2{fill:#AA8833;}
	.st3{fill:#FFDA44;}
</style>
<text transform="matrix(1 0 0 1 -1.1819 52.1941)"><tspan x="0" y="0" class="st0 st1">Юридическая контора</tspan><tspan x="65.6" y="28.8" class="st2 st0 st1">«Советник»</tspan></text>
<g>
	<path class="st3" d="M366.2,119.9v4.8h-57.7v-4.8c0-2.6,2.2-4.8,4.8-4.8h9.7c0.3-6,4.2-11,9.6-12.9V45.8c-2.5-1.6-4.2-4.4-4.2-7.6
		h4.2h9.6h4.2c0,3.2-1.7,6-4.2,7.6v56.4c5.4,1.9,9.3,6.9,9.6,12.9h9.7C364,115.1,366.2,117.3,366.2,119.9z M399.9,76.6
		c-3.5,9.9-12.9,17.1-24,17.1s-20.5-7.2-24-17.1h5.6l16.2-43.1c0.7-1.9,3.8-1.9,4.5,0l16.2,43.1L399.9,76.6L399.9,76.6z M389.2,76.6
		l-13.4-35.4l-13.4,35.4L389.2,76.6L389.2,76.6z M298.9,28.6c2.2,0,4-1.5,4.6-3.4c1.6-0.6,3.2-1.4,4.9-2.3c3.7-1.9,7.8-4,12.2-4
		c4.2,0,6.8,1.9,8.2,3.6c-0.1,0.4-0.1,0.8-0.1,1.3c0,4.8,3.9,8.7,8.7,8.7c4.8,0,8.7-3.9,8.7-8.7c0-0.4-0.1-0.8-0.1-1.3
		c1.5-1.6,4.1-3.6,8.2-3.6c4.3,0,8.5,2.1,12.2,4c1.7,0.8,3.3,1.7,4.9,2.3c0.6,2,2.4,3.4,4.6,3.4c2.7,0,4.9-2.2,4.9-4.9
		s-2.2-4.9-4.9-4.9c-1.4,0-2.6,0.6-3.5,1.5c-1.2-0.5-2.5-1.1-3.8-1.8c-4.2-2.1-8.9-4.5-14.3-4.5c-4.8,0-8.1,1.8-10.4,3.8
		c-1-1.1-2.3-2-3.8-2.4c1.8-1,3.1-2.8,3.1-5c0-3.2-5.7-10.5-5.7-10.5s-5.7,7.4-5.7,10.5c0,2.2,1.3,4,3.1,5c-1.5,0.5-2.8,1.3-3.8,2.4
		c-2.3-2-5.6-3.8-10.4-3.8c-5.5,0-10.2,2.4-14.3,4.5c-1.3,0.7-2.6,1.3-3.8,1.8c-0.9-0.9-2.1-1.5-3.5-1.5c-2.7,0-4.9,2.2-4.9,4.9
		S296.2,28.6,298.9,28.6z M298.9,93.7c-11.1,0-20.5-7.2-24-17.1h5.5l16.2-43.1c0.7-1.9,3.8-1.9,4.5,0l16.2,43.1h5.5
		C319.4,86.6,310,93.7,298.9,93.7z M312.2,76.6l-13.4-35.4l-13.4,35.4L312.2,76.6L312.2,76.6z"/>
</g>
</svg>
